<svg aria-hidden="true" style="width:0;height:0;position:absolute;overflow:hidden" xmlns="http://www.w3.org/2000/svg"><defs><symbol id="icon-arrow-up" viewBox="0 0 32 32"><path fill="#fff" d="M16 1 1 16h9v16h12V16h9z"/></symbol><symbol id="icon-close" viewBox="0 0 30 30"><path d="m8 8 14 14M8 22 22 8" stroke-width="2"/></symbol><symbol id="icon-heart" viewBox="0 0 34 32"><path style="fill:var(--color1,#ff6b08)" d="m17.231 31.705-2.412-2.412C5.859 21.367.001 16.025.001 9.478.001 4.136 4.136.001 9.478.001c2.929 0 5.858 1.378 7.754 3.618 1.895-2.24 4.825-3.618 7.754-3.618 5.342 0 9.477 4.135 9.477 9.477 0 6.548-5.858 11.889-14.818 19.815l-2.412 2.412z"/></symbol><symbol id="icon-input" viewBox="0 0 32 32"><path fill="none" stroke="#fff" style="stroke:var(--color1,#fff)" stroke-linejoin="round" stroke-linecap="round" stroke-width="2.667" d="M14.667 25.333c5.891 0 10.667-4.776 10.667-10.667S20.558 3.999 14.667 3.999 4 8.775 4 14.666s4.776 10.667 10.667 10.667zM28 28.001l-5.8-5.8"/></symbol><symbol id="icon-film" viewBox="0 0 32 32"><path fill="none" stroke="#fff" style="stroke:var(--color1,#fff)" stroke-linejoin="round" stroke-linecap="round" stroke-width="2.667" d="M26.427 2.667H5.574a2.907 2.907 0 0 0-2.907 2.907v20.853a2.907 2.907 0 0 0 2.907 2.907h20.853a2.907 2.907 0 0 0 2.907-2.907V5.574a2.907 2.907 0 0 0-2.907-2.907zM9.333 2.667v26.667M22.667 2.667v26.667M2.667 16h26.667M2.667 9.333h6.667M2.667 22.667h6.667M22.667 22.667h6.667M22.667 9.333h6.667"/></symbol><symbol id="icon-account" viewBox="0 0 32 32"><path fill="#fff" style="fill:var(--color1,#fff)" d="M16 2.667C8.64 2.667 2.667 8.64 2.667 16S8.64 29.333 16 29.333 29.333 23.36 29.333 16 23.36 2.667 16 2.667zM16 8c2.573 0 4.667 2.093 4.667 4.667S18.574 17.334 16 17.334s-4.667-2.093-4.667-4.667S13.426 8 16 8zm0 18.667c-2.707 0-5.907-1.093-8.187-3.84a13.264 13.264 0 0 1 16.374 0c-2.28 2.747-5.48 3.84-8.187 3.84z"/></symbol><symbol id="icon-logout" viewBox="0 0 32 32"><path fill="#fff" style="fill:var(--color1,#fff)" d="m22.667 9.333-1.88 1.88 3.44 3.453h-13.56v2.667h13.56l-3.44 3.44 1.88 1.893 6.667-6.667zM5.333 6.667H16V4H5.333a2.675 2.675 0 0 0-2.667 2.667v18.667c0 1.467 1.2 2.667 2.667 2.667H16v-2.667H5.333V6.667z"/></symbol><symbol id="play-button" viewBox="0 0 32 32"><g fill="#ff6b01"><path d="M16 0C7.178 0 0 7.178 0 16s7.178 16 16 16 16-7.178 16-16S24.822 0 16 0zm0 31C7.729 31 1 24.271 1 16S7.729 1 16 1s15 6.729 15 15-6.729 15-15 15z"/><path d="M19.609 14.802 14.316 10.8a1.462 1.462 0 0 0-.88-.302c-.805 0-1.436.66-1.436 1.502v8c0 .842.635 1.502 1.445 1.502.313 0 .619-.104.885-.304l5.258-3.998c.382-.287.611-.742.611-1.218a1.463 1.463 0 0 0-.59-1.18zm-.624 1.599-5.258 3.998c-.293.223-.727.054-.727-.399v-8c0-.326.225-.502.437-.502a.46.46 0 0 1 .279.101l5.293 4.002c.165.123.19.292.19.382a.519.519 0 0 1-.214.418z"/></g></symbol><symbol id="icon-light" viewBox="0 0 34 35"><path d="M16 26a2 2 0 0 1 2 2v2a2 2 0 1 1-4 0v-2a2 2 0 0 1 2-2zm0-20a2 2 0 0 1-2-2V2a2 2 0 1 1 4 0v2a2 2 0 0 1-2 2zm14 8a2 2 0 1 1 0 4h-2a2 2 0 1 1 0-4h2zM6 16a2 2 0 0 1-2 2H2a2 2 0 1 1 0-4h2a2 2 0 0 1 2 2zm19.899 7.071 1.414 1.414a2 2 0 1 1-2.828 2.828l-1.414-1.414a2 2 0 1 1 2.828-2.828zM6.101 8.929 4.687 7.515a2 2 0 1 1 2.828-2.828l1.414 1.414a2 2 0 1 1-2.828 2.828zm19.798 0a2 2 0 1 1-2.828-2.828l1.414-1.414a2 2 0 1 1 2.828 2.828l-1.414 1.414zM6.101 23.071a2 2 0 1 1 2.828 2.828l-1.414 1.414a2 2 0 1 1-2.828-2.828l1.414-1.414zM16 8a8 8 0 1 0 0 16 8 8 0 0 0 0-16zm0 13a5 5 0 1 1 .001-10.001A5 5 0 0 1 16 21z"/></symbol><symbol id="icon-dark" viewBox="0 0 40 50"><path d="M15 .695a1.92 1.92 0 0 1 .2 2.145 18.019 18.019 0 0 0-2.195 8.65c0 10.053 8.195 18.193 18.295 18.193 1.317 0 2.6-.138 3.832-.4a1.968 1.968 0 0 1 2.026.79 1.833 1.833 0 0 1-.078 2.232A20.873 20.873 0 0 1 20.86 40C9.335 40 0 30.715 0 19.275 0 10.665 5.285 3.28 12.81.15A1.88 1.88 0 0 1 15 .695Z"/></symbol></defs></svg>