<svg aria-hidden="true" style="position: absolute; width: 0; height: 0; overflow: hidden;" version="1.1" xmlns="http://www.w3.org/2000/svg" xmlns:xlink="http://www.w3.org/1999/xlink">
<defs>
<symbol id="icon-close" viewBox="0 0 30 30">
<path d="M8 8L22 22"  stroke-width="2"/>
<path d="M8 22L22 8"  stroke-width="2"/>
</symbol>
<symbol id="icon-heart" viewBox="0 0 34 32">
<path style="fill: var(--color1, #ff6b08)" d="M17.231 31.705l-2.412-2.412c-8.96-7.926-14.818-13.268-14.818-19.815 0-5.342 4.135-9.477 9.477-9.477 2.929 0 5.858 1.378 7.754 3.618 1.895-2.24 4.825-3.618 7.754-3.618 5.342 0 9.477 4.135 9.477 9.477 0 6.548-5.858 11.889-14.818 19.815l-2.412 2.412z"></path>
</symbol>
<symbol id="icon-input" viewBox="0 0 32 32">
<path stroke="#fff" style="stroke: var(--color2, #fff)" stroke-linejoin="round" stroke-linecap="round" stroke-miterlimit="4" stroke-width="2.6667" d="M14.667 25.333c5.891 0 10.667-4.776 10.667-10.667s-4.776-10.667-10.667-10.667c-5.891 0-10.667 4.776-10.667 10.667s4.776 10.667 10.667 10.667z"></path>
<path stroke="#fff" style="stroke: var(--color2, #fff)" stroke-linejoin="round" stroke-linecap="round" stroke-miterlimit="4" stroke-width="2.6667" d="M28 28.001l-5.8-5.8"></path>
</symbol>
<symbol id="icon-film" viewBox="0 0 32 32">
<path stroke="#fff" style="stroke: var(--color2, #fff)" stroke-linejoin="round" stroke-linecap="round" stroke-miterlimit="4" stroke-width="2.6667" d="M26.427 3.606h-20.853c-1.605 0-2.907 1.239-2.907 2.768v19.856c0 1.529 1.301 2.768 2.907 2.768h20.853c1.605 0 2.907-1.239 2.907-2.768v-19.856c0-1.529-1.301-2.768-2.907-2.768z"></path>
<path stroke="#fff" style="stroke: var(--color2, #fff)" stroke-linejoin="round" stroke-linecap="round" stroke-miterlimit="4" stroke-width="2.6667" d="M9.333 3.606v25.391"></path>
<path stroke="#fff" style="stroke: var(--color2, #fff)" stroke-linejoin="round" stroke-linecap="round" stroke-miterlimit="4" stroke-width="2.6667" d="M22.667 3.606v25.391"></path>
<path stroke="#fff" style="stroke: var(--color2, #fff)" stroke-linejoin="round" stroke-linecap="round" stroke-miterlimit="4" stroke-width="2.6667" d="M2.667 16.301h26.667"></path>
<path stroke="#fff" style="stroke: var(--color2, #fff)" stroke-linejoin="round" stroke-linecap="round" stroke-miterlimit="4" stroke-width="2.6667" d="M2.667 9.954h6.667"></path>
<path stroke="#fff" style="stroke: var(--color2, #fff)" stroke-linejoin="round" stroke-linecap="round" stroke-miterlimit="4" stroke-width="2.6667" d="M2.667 22.649h6.667"></path>
<path stroke="#fff" style="stroke: var(--color2, #fff)" stroke-linejoin="round" stroke-linecap="round" stroke-miterlimit="4" stroke-width="2.6667" d="M22.667 22.649h6.667"></path>
<path stroke="#fff" style="stroke: var(--color2, #fff)" stroke-linejoin="round" stroke-linecap="round" stroke-miterlimit="4" stroke-width="2.6667" d="M22.667 9.954h6.667"></path>
</symbol>
<symbol id="icon-account" viewBox="0 0 32 32">
<path fill="#fff" style="fill: var(--color1, #fff)" d="M16 2.667c-7.36 0-13.333 5.973-13.333 13.333s5.973 13.333 13.333 13.333 13.333-5.973 13.333-13.333-5.973-13.333-13.333-13.333zM16 8c2.573 0 4.667 2.093 4.667 4.667s-2.093 4.667-4.667 4.667-4.667-2.093-4.667-4.667 2.093-4.667 4.667-4.667zM16 26.667c-2.707 0-5.907-1.093-8.187-3.84 2.253-1.76 5.093-2.827 8.187-2.827s5.933 1.067 8.187 2.827c-2.28 2.747-5.48 3.84-8.187 3.84z"></path>
</symbol>
<symbol id="icon-logout" viewBox="0 0 32 32">
<path fill="#fff" style="fill: var(--color1, #fff)" d="M22.667 9.333l-1.88 1.88 3.44 3.453h-13.56v2.667h13.56l-3.44 3.44 1.88 1.893 6.667-6.667zM5.333 6.667h10.667v-2.667h-10.667c-1.467 0-2.667 1.2-2.667 2.667v18.667c0 1.467 1.2 2.667 2.667 2.667h10.667v-2.667h-10.667v-18.667z"></path>
</symbol>
<symbol version="1.1" id="play-button" viewBox="0 0 32 32">
    <g>
      <path fill="#ff6b01" d="M16,0C7.178,0,0,7.178,0,16s7.178,16,16,16s16-7.178,16-16S24.822,0,16,0z M16,31C7.729,31,1,24.271,1,16
		S7.729,1,16,1s15,6.729,15,15S24.271,31,16,31z"></path>
      <path fill="#ff6b01" d="M19.609,14.802L14.316,10.8c-0.263-0.197-0.567-0.302-0.88-0.302C12.631,10.498,12,11.158,12,12v8
		c0,0.842,0.635,1.502,1.445,1.502c0.313,0,0.619-0.104,0.885-0.304l5.258-3.998c0.382-0.287,0.611-0.742,0.611-1.218
		C20.198,15.512,19.983,15.081,19.609,14.802z M18.985,16.401l-5.258,3.998C13.434,20.622,13,20.453,13,20v-8
		c0-0.326,0.225-0.502,0.437-0.502c0.096,0,0.19,0.034,0.279,0.101l5.293,4.002c0.165,0.123,0.19,0.292,0.19,0.382
		C19.198,16.147,19.122,16.3,18.985,16.401z"></path>
    </g>
  </symbol>
</defs>
</svg>
